<svg xmlns="http://www.w3.org/2000/svg" xml:space="preserve" style="fill-rule:evenodd;clip-rule:evenodd;stroke-linejoin:round;stroke-miterlimit:2" viewBox="0 0 24 24"><path d="M24 1.92C24 .86 23.14 0 22.08 0H1.92C.86 0 0 .86 0 1.92v20.16C0 23.14.86 24 1.92 24h20.16c1.06 0 1.92-.86 1.92-1.92V1.92Z" style="fill:#2d3846"/><path d="M11.04 10.347a4.22 4.22 0 0 1-3.372-4.131A4.218 4.218 0 0 1 11.884 2a4.218 4.218 0 0 1 4.215 4.216 4.22 4.22 0 0 1-3.372 4.131v8.113a6.755 6.755 0 0 0 5.688-5.007h-.485a.843.843 0 0 1-.641-1.391l1.542-1.802a.843.843 0 0 1 1.281 0l1.542 1.802a.845.845 0 0 1-.641 1.391h-.867a8.451 8.451 0 0 1-6.091 6.462l-1.531 1.79a.843.843 0 0 1-1.281 0l-1.531-1.79a8.451 8.451 0 0 1-6.091-6.462h-.722a.843.843 0 0 1-.641-1.391L3.8 10.26a.843.843 0 0 1 1.281 0l1.541 1.802a.843.843 0 0 1-.64 1.391h-.63a6.755 6.755 0 0 0 5.688 5.007v-8.113Zm.844-6.671a2.54 2.54 0 1 1-2.54 2.54 2.541 2.541 0 0 1 2.54-2.54Z" style="fill:#fff"/></svg>